<?xml version="1.0" standalone="no"?><!DOCTYPE svg PUBLIC "-//W3C//DTD SVG 1.1//EN" "http://www.w3.org/Graphics/SVG/1.1/DTD/svg11.dtd"><svg height="800" node-id="1" sillyvg="true" template-height="800" template-width="800" version="1.1" viewBox="0 0 800 800" width="800" xmlns="http://www.w3.org/2000/svg" xmlns:xlink="http://www.w3.org/1999/xlink"><defs node-id="147"><linearGradient gradientUnits="userSpaceOnUse" id="SVGID_1_" node-id="8" spreadMethod="pad" x1="221.3344" x2="330.0416" y1="158.1725" y2="158.1725"><stop offset="0" stop-color="#fff2f0"></stop><stop offset="1" stop-color="#fadad4"></stop></linearGradient><linearGradient gradientUnits="userSpaceOnUse" id="SVGID_2_" node-id="12" spreadMethod="pad" x1="631.7153" x2="740.4224" y1="528.0729" y2="528.0729"><stop offset="0" stop-color="#fff2f0"></stop><stop offset="1" stop-color="#fadad4"></stop></linearGradient><linearGradient gradientUnits="userSpaceOnUse" id="SVGID_3_" node-id="16" spreadMethod="pad" x1="31.2045" x2="115.0514" y1="266.0763" y2="266.0763"><stop offset="0" stop-color="#fff2f0"></stop><stop offset="1" stop-color="#fadad4"></stop></linearGradient><linearGradient gradientUnits="userSpaceOnUse" id="SVGID_4_" node-id="20" spreadMethod="pad" x1="478.9468" x2="562.7936" y1="117.5159" y2="117.5159"><stop offset="0" stop-color="#fff2f0"></stop><stop offset="1" stop-color="#fadad4"></stop></linearGradient><linearGradient gradientUnits="userSpaceOnUse" id="SVGID_5_" node-id="24" spreadMethod="pad" x1="686.0689" x2="769.9158" y1="367.0043" y2="367.0043"><stop offset="0" stop-color="#fff2f0"></stop><stop offset="1" stop-color="#fadad4"></stop></linearGradient><linearGradient gradientUnits="userSpaceOnUse" id="SVGID_6_" node-id="28" spreadMethod="pad" x1="643.9982" x2="720.3591" y1="437.0349" y2="437.0349"><stop offset="0" stop-color="#fff2f0"></stop><stop offset="1" stop-color="#fadad4"></stop></linearGradient><linearGradient gradientUnits="userSpaceOnUse" id="SVGID_7_" node-id="32" spreadMethod="pad" x1="149.0508" x2="225.4117" y1="240.0689" y2="240.0689"><stop offset="0" stop-color="#fff2f0"></stop><stop offset="1" stop-color="#fadad4"></stop></linearGradient><linearGradient gradientUnits="userSpaceOnUse" id="SVGID_8_" node-id="36" spreadMethod="pad" x1="33.8264" x2="62.1466" y1="487.4163" y2="487.4163"><stop offset="0" stop-color="#fff2f0"></stop><stop offset="1" stop-color="#fadad4"></stop></linearGradient><linearGradient gradientUnits="userSpaceOnUse" id="SVGID_9_" node-id="40" spreadMethod="pad" x1="388.3286" x2="464.6894" y1="158.1723" y2="158.1723"><stop offset="0" stop-color="#fff2f0"></stop><stop offset="1" stop-color="#fadad4"></stop></linearGradient><linearGradient gradientUnits="userSpaceOnUse" id="SVGID_10_" node-id="44" spreadMethod="pad" x1="624.7111" x2="646.4767" y1="195.9296" y2="195.9296"><stop offset="0" stop-color="#fff2f0"></stop><stop offset="1" stop-color="#fadad4"></stop></linearGradient><linearGradient gradientUnits="userSpaceOnUse" id="SVGID_11_" node-id="48" spreadMethod="pad" x1="94.7218" x2="115.0514" y1="134.3062" y2="134.3062"><stop offset="0" stop-color="#fff2f0"></stop><stop offset="1" stop-color="#fadad4"></stop></linearGradient><linearGradient gradientUnits="userSpaceOnUse" id="SVGID_12_" node-id="52" spreadMethod="pad" x1="710.9763" x2="729.7419" y1="253.7186" y2="253.7186"><stop offset="0" stop-color="#fff2f0"></stop><stop offset="1" stop-color="#fadad4"></stop></linearGradient><linearGradient gradientUnits="userSpaceOnUse" id="SVGID_13_" node-id="70" spreadMethod="pad" x1="79.5674" x2="197.1066" y1="401.0617" y2="401.0617"><stop offset="0" stop-color="#fff2f0"></stop><stop offset="1" stop-color="#fadad4"></stop></linearGradient><linearGradient gradientUnits="userSpaceOnUse" id="SVGID_14_" node-id="74" spreadMethod="pad" x1="396.7643" x2="396.7643" y1="163.6638" y2="591.8342"><stop offset="0.2961" stop-color="#fbeae6"></stop><stop offset="1" stop-color="#f9c8c5"></stop></linearGradient><linearGradient gradientUnits="userSpaceOnUse" id="SVGID_15_" node-id="78" spreadMethod="pad" x1="396.764" x2="396.764" y1="227.2385" y2="591.8342"><stop offset="0.2263" stop-color="#ffdbd9"></stop><stop offset="1" stop-color="#f79c9b"></stop></linearGradient><linearGradient gradientUnits="userSpaceOnUse" id="SVGID_16_" node-id="88" spreadMethod="pad" x1="135.982" x2="135.982" y1="303.6519" y2="363.3532"><stop offset="0.2961" stop-color="#fbeae6"></stop><stop offset="1" stop-color="#eae8db"></stop></linearGradient><linearGradient gradientUnits="userSpaceOnUse" id="SVGID_17_" node-id="94" spreadMethod="pad" x1="211.9032" x2="211.9032" y1="220.0899" y2="289.3203"><stop offset="0.2961" stop-color="#fbeae6"></stop><stop offset="1" stop-color="#eae8db"></stop></linearGradient><linearGradient gradientUnits="userSpaceOnUse" id="SVGID_18_" node-id="108" spreadMethod="pad" x1="354.2412" x2="538.2878" y1="322.1865" y2="322.1865"><stop offset="0" stop-color="#f7c1bf"></stop><stop offset="1" stop-color="#f79c9b"></stop></linearGradient><linearGradient gradientUnits="userSpaceOnUse" id="SVGID_19_" node-id="112" spreadMethod="pad" x1="354.2412" x2="492.4326" y1="443.2855" y2="443.2855"><stop offset="0" stop-color="#f79c9b"></stop><stop offset="1" stop-color="#f67c7b"></stop></linearGradient><linearGradient gradientUnits="userSpaceOnUse" id="SVGID_20_" node-id="116" spreadMethod="pad" x1="354.2412" x2="558.1078" y1="565.0165" y2="565.0165"><stop offset="0" stop-color="#f7c1bf"></stop><stop offset="1" stop-color="#f79c9b"></stop></linearGradient><linearGradient gradientUnits="userSpaceOnUse" id="SVGID_21_" node-id="120" spreadMethod="pad" x1="350.1366" x2="599.8389" y1="292.1645" y2="292.1645"><stop offset="0" stop-color="#f79c9b"></stop><stop offset="1" stop-color="#f67c7b"></stop></linearGradient><linearGradient gradientUnits="userSpaceOnUse" id="SVGID_22_" node-id="125" spreadMethod="pad" x1="534.1638" x2="630.6241" y1="444.0442" y2="444.0442"><stop offset="0" stop-color="#f7c1bf"></stop><stop offset="1" stop-color="#f79c9b"></stop></linearGradient></defs><g node-id="466"><g node-id="469"><g node-id="478"><path d="M 232.31 158.47 L 297.12 195.89 C 307.62 201.95 321.04 198.35 327.09 187.86 L 327.09 187.86 C 333.15 177.36 329.55 163.94 319.06 157.89 L 254.25 120.47 C 243.75 114.41 230.33 118.01 224.28 128.50 L 224.28 128.50 C 218.22 138.99 221.81 152.41 232.31 158.47 Z" fill="url(#SVGID_1_)" fill-rule="nonzero" group-id="1,4,13" node-id="290" stroke="none" target-height="87.53999" target-width="114.92999" target-x="218.22" target-y="114.41"></path><path d="M 729.45 527.78 L 664.64 490.36 C 654.14 484.30 640.72 487.90 634.67 498.39 L 634.67 498.39 C 628.61 508.89 632.21 522.31 642.70 528.36 L 707.51 565.78 C 718.01 571.84 731.43 568.24 737.48 557.75 C 743.54 547.26 739.94 533.84 729.45 527.78 Z" fill="url(#SVGID_2_)" fill-rule="nonzero" group-id="1,4,13" node-id="292" stroke="none" target-height="87.54004" target-width="114.92999" target-x="628.61" target-y="484.3"></path><path d="M 39.50 265.83 L 90.15 295.07 C 98.09 299.65 108.24 296.93 112.82 289.00 L 112.82 289.00 C 117.40 281.06 114.68 270.91 106.75 266.33 L 56.10 237.08 C 48.16 232.50 38.01 235.22 33.43 243.15 C 28.85 251.09 31.57 261.24 39.50 265.83 Z" fill="url(#SVGID_3_)" fill-rule="nonzero" group-id="1,4,13" node-id="294" stroke="none" target-height="67.149994" target-width="88.55" target-x="28.85" target-y="232.5"></path><path d="M 487.25 117.26 L 537.90 146.50 C 545.84 151.08 555.99 148.36 560.57 140.43 L 560.57 140.43 C 565.15 132.49 562.43 122.34 554.50 117.76 L 503.85 88.52 C 495.91 83.94 485.76 86.66 481.18 94.59 C 476.59 102.53 479.31 112.68 487.25 117.26 Z" fill="url(#SVGID_4_)" fill-rule="nonzero" group-id="1,4,13" node-id="296" stroke="none" target-height="67.14" target-width="88.56003" target-x="476.59" target-y="83.94"></path><path d="M 761.62 367.26 L 710.97 338.02 C 703.03 333.44 692.88 336.16 688.30 344.09 C 683.72 352.03 686.44 362.18 694.37 366.76 L 745.02 396.00 C 752.96 400.58 763.11 397.86 767.69 389.93 L 767.69 389.93 C 772.27 381.99 769.55 371.84 761.62 367.26 Z" fill="url(#SVGID_5_)" fill-rule="nonzero" group-id="1,4,13" node-id="298" stroke="none" target-height="67.139984" target-width="88.55005" target-x="683.72" target-y="333.44"></path><path d="M 644.58 415.33 L 644.58 415.33 C 643.39 417.39 644.10 420.03 646.16 421.22 L 713.90 460.33 C 715.96 461.52 718.60 460.81 719.79 458.75 C 720.98 456.69 720.27 454.05 718.21 452.86 L 650.47 413.75 C 648.40 412.56 645.77 413.26 644.58 415.33 Z" fill="url(#SVGID_6_)" fill-rule="nonzero" group-id="1,4,13" node-id="300" stroke="none" target-height="48.95999" target-width="77.589966" target-x="643.39" target-y="412.56"></path><path d="M 151.21 224.25 L 218.95 263.36 C 221.01 264.55 223.65 263.84 224.84 261.78 C 226.03 259.72 225.32 257.08 223.26 255.89 L 155.52 216.78 C 153.46 215.59 150.82 216.30 149.63 218.36 C 148.44 220.42 149.15 223.06 151.21 224.25 Z" fill="url(#SVGID_7_)" fill-rule="nonzero" group-id="1,4,13" node-id="302" stroke="none" target-height="48.95999" target-width="77.59" target-x="148.44" target-y="215.59"></path><path d="M 60.51 490.86 L 52.47 486.22 L 57.11 478.18 C 58.02 476.61 57.48 474.61 55.91 473.70 C 54.34 472.79 52.34 473.33 51.43 474.90 L 46.79 482.94 L 38.75 478.30 C 37.18 477.39 35.18 477.93 34.27 479.50 C 33.36 481.07 33.90 483.07 35.47 483.98 L 43.51 488.62 L 38.87 496.66 C 37.96 498.23 38.50 500.23 40.07 501.14 C 41.64 502.05 43.64 501.51 44.55 499.94 L 49.19 491.90 L 57.23 496.54 C 58.80 497.45 60.80 496.91 61.71 495.34 C 62.61 493.77 62.07 491.76 60.51 490.86 Z" fill="url(#SVGID_8_)" fill-rule="nonzero" group-id="1,4,13" node-id="304" stroke="none" target-height="29.25998" target-width="29.25" target-x="33.36" target-y="472.79"></path><path d="M 390.48 142.35 L 458.22 181.46 C 460.28 182.65 462.92 181.94 464.11 179.88 C 465.30 177.82 464.59 175.18 462.53 173.99 L 394.79 134.88 C 392.73 133.69 390.09 134.40 388.90 136.46 L 388.90 136.46 C 387.72 138.53 388.42 141.16 390.48 142.35 Z" fill="url(#SVGID_9_)" fill-rule="nonzero" group-id="1,4,13" node-id="306" stroke="none" target-height="48.95999" target-width="77.57999" target-x="387.72" target-y="133.69"></path><path d="M 635.59 206.81 C 641.59 206.81 646.47 201.93 646.47 195.93 C 646.47 189.93 641.59 185.05 635.59 185.05 C 629.59 185.05 624.71 189.93 624.71 195.93 C 624.71 201.93 629.59 206.81 635.59 206.81 Z M 635.59 188.05 C 639.94 188.05 643.47 191.59 643.47 195.93 C 643.47 200.27 639.93 203.81 635.59 203.81 C 631.25 203.81 627.71 200.27 627.71 195.93 C 627.71 191.59 631.25 188.05 635.59 188.05 Z" fill="url(#SVGID_10_)" fill-rule="nonzero" group-id="1,4,13" node-id="308" stroke="none" target-height="21.759995" target-width="21.759949" target-x="624.71" target-y="185.05"></path><path d="M 104.89 144.47 C 110.49 144.47 115.06 139.91 115.06 134.31 C 115.06 128.71 110.50 124.15 104.89 124.15 C 99.29 124.15 94.73 128.71 94.73 134.31 C 94.73 139.91 99.28 144.47 104.89 144.47 Z M 104.89 127.14 C 108.84 127.14 112.06 130.35 112.06 134.30 C 112.06 138.25 108.85 141.46 104.89 141.46 C 100.93 141.46 97.73 138.25 97.73 134.30 C 97.73 130.35 100.94 127.14 104.89 127.14 Z" fill="url(#SVGID_11_)" fill-rule="nonzero" group-id="1,4,13" node-id="310" stroke="none" target-height="20.32" target-width="20.329994" target-x="94.73" target-y="124.15"></path><path d="M 720.36 263.10 C 725.54 263.10 729.74 258.90 729.74 253.72 C 729.74 248.54 725.54 244.34 720.36 244.34 C 715.18 244.34 710.98 248.54 710.98 253.72 C 710.98 258.90 715.18 263.10 720.36 263.10 Z" fill="url(#SVGID_12_)" fill-rule="nonzero" group-id="1,4,13" node-id="312" stroke="none" target-height="18.76001" target-width="18.76001" target-x="710.98" target-y="244.34"></path><g node-id="479"><path d="M 697.64 600.37 L 76.19 600.37 C 73.43 600.37 71.19 602.61 71.19 605.37 C 71.19 608.13 73.43 610.37 76.19 610.37 L 697.64 610.37 C 700.40 610.37 702.64 608.13 702.64 605.37 C 702.64 602.61 700.40 600.37 697.64 600.37 Z" fill="#f4afae" fill-rule="nonzero" group-id="1,4,13,14" node-id="316" stroke="none" target-height="10" target-width="631.45" target-x="71.19" target-y="600.37"></path></g><g node-id="480"><path d="M 734.40 600.37 L 719.34 600.37 C 716.58 600.37 714.34 602.61 714.34 605.37 C 714.34 608.13 716.58 610.37 719.34 610.37 L 734.40 610.37 C 737.16 610.37 739.40 608.13 739.40 605.37 C 739.40 602.61 737.16 600.37 734.40 600.37 Z" fill="#f4afae" fill-rule="nonzero" group-id="1,4,13,15" node-id="321" stroke="none" target-height="10" target-width="25.059998" target-x="714.34" target-y="600.37"></path></g><g node-id="481"><path d="M 476.27 635.86 L 323.08 635.86 C 320.32 635.86 318.08 638.10 318.08 640.86 C 318.08 643.62 320.32 645.86 323.08 645.86 L 476.27 645.86 C 479.03 645.86 481.27 643.62 481.27 640.86 C 481.27 638.09 479.04 635.86 476.27 635.86 Z" fill="#f4afae" fill-rule="nonzero" group-id="1,4,13,16" node-id="326" stroke="none" target-height="10" target-width="163.19" target-x="318.08" target-y="635.86"></path></g><g node-id="482"><path d="M 508.00 636.43 L 493.13 636.43 C 490.37 636.43 488.13 638.67 488.13 641.43 C 488.13 644.19 490.37 646.43 493.13 646.43 L 508.00 646.43 C 510.76 646.43 513.00 644.19 513.00 641.43 C 513.00 638.67 510.76 636.43 508.00 636.43 Z" fill="#f4afae" fill-rule="nonzero" group-id="1,4,13,17" node-id="331" stroke="none" target-height="10" target-width="24.869995" target-x="488.13" target-y="636.43"></path></g><g node-id="483"><path d="M 680.02 636.43 L 525.87 636.43 C 523.11 636.43 520.87 638.67 520.87 641.43 C 520.87 644.19 523.11 646.43 525.87 646.43 L 680.02 646.43 C 682.78 646.43 685.02 644.19 685.02 641.43 C 685.02 638.67 682.78 636.43 680.02 636.43 Z" fill="#f4afae" fill-rule="nonzero" group-id="1,4,13,18" node-id="336" stroke="none" target-height="10" target-width="164.15002" target-x="520.87" target-y="636.43"></path></g><g node-id="484"><path d="M 199.76 669.81 L 184.44 669.81 C 181.68 669.81 179.44 672.05 179.44 674.81 C 179.44 677.57 181.68 679.81 184.44 679.81 L 199.76 679.81 C 202.52 679.81 204.76 677.57 204.76 674.81 C 204.76 672.05 202.53 669.81 199.76 669.81 Z" fill="#f4afae" fill-rule="nonzero" group-id="1,4,13,19" node-id="341" stroke="none" target-height="10" target-width="25.319992" target-x="179.44" target-y="669.81"></path></g><g node-id="485"><path d="M 401.23 669.81 L 299.80 669.81 C 297.15 665.89 293.13 661.64 284.02 661.64 C 276.95 661.64 271.83 665.99 269.01 669.81 L 215.34 669.81 C 212.58 669.81 210.34 672.05 210.34 674.81 C 210.34 677.57 212.58 679.81 215.34 679.81 L 271.77 679.81 C 273.66 679.81 275.40 678.74 276.24 677.05 C 276.27 677.00 279.08 671.64 284.02 671.64 C 289.19 671.64 290.34 673.47 292.61 677.12 L 292.82 677.46 C 293.73 678.92 295.34 679.81 297.06 679.81 L 401.23 679.81 C 403.99 679.81 406.23 677.57 406.23 674.81 C 406.23 672.05 403.99 669.81 401.23 669.81 Z" fill="#f4afae" fill-rule="nonzero" group-id="1,4,13,20" node-id="346" stroke="none" target-height="18.169983" target-width="195.89001" target-x="210.34" target-y="661.64"></path></g><path d="M 147.97 444.44 L 95.95 414.41 C 80.28 405.37 74.92 385.33 83.96 369.67 L 83.96 369.67 C 93.00 354.00 113.04 348.64 128.70 357.68 L 180.72 387.71 C 196.39 396.75 201.75 416.79 192.71 432.45 L 192.71 432.45 C 183.67 448.12 163.64 453.49 147.97 444.44 Z" fill="url(#SVGID_13_)" fill-rule="nonzero" group-id="1,4,13" node-id="349" stroke="none" target-height="104.849976" target-width="126.83" target-x="74.92" target-y="348.64"></path></g></g><path d="M 636.36 591.83 C 662.68 549.04 677.87 498.68 677.87 444.77 C 677.87 289.52 552.01 163.66 396.76 163.66 C 241.51 163.66 115.65 289.52 115.65 444.77 C 115.65 498.69 130.84 549.05 157.16 591.83 L 636.36 591.83 Z" fill="url(#SVGID_14_)" fill-rule="nonzero" group-id="1" node-id="353" stroke="none" target-height="428.17" target-width="562.22" target-x="115.65" target-y="163.66"></path><path d="M 557.04 591.83 C 592.59 553.11 614.30 501.47 614.30 444.77 C 614.30 324.63 516.91 227.24 396.77 227.24 C 276.63 227.24 179.24 324.63 179.24 444.77 C 179.24 501.48 200.95 553.11 236.50 591.83 L 557.04 591.83 Z" fill="url(#SVGID_15_)" fill-rule="nonzero" group-id="1" node-id="355" stroke="none" target-height="364.59003" target-width="435.06" target-x="179.24" target-y="227.24"></path><path d="M 277.32 294.80 C 271.53 294.80 266.82 290.09 266.82 284.30 C 266.82 278.51 271.53 273.80 277.32 273.80 C 283.11 273.80 287.82 278.51 287.82 284.30 C 287.82 290.09 283.11 294.80 277.32 294.80 Z M 277.32 276.80 C 273.18 276.80 269.82 280.16 269.82 284.30 C 269.82 288.44 273.18 291.80 277.32 291.80 C 281.46 291.80 284.82 288.44 284.82 284.30 C 284.82 280.16 281.45 276.80 277.32 276.80 Z" fill="#ffffff" fill-rule="nonzero" group-id="1,5" node-id="359" stroke="none" target-height="21" target-width="21" target-x="266.82" target-y="273.8"></path><path d="M 520.51 362.81 C 520.51 365.35 518.45 367.41 515.91 367.41 C 513.37 367.41 511.31 365.35 511.31 362.81 C 511.31 360.27 513.37 358.21 515.91 358.21 C 518.45 358.21 520.51 360.27 520.51 362.81 Z" fill="#ffffff" fill-rule="nonzero" group-id="1" node-id="362" stroke="none" target-height="9.200012" target-width="9.200012" target-x="511.31" target-y="358.21"></path><path d="M 587.60 446.44 L 579.56 441.80 L 584.20 433.76 C 585.11 432.19 584.57 430.19 583.00 429.28 C 581.43 428.37 579.43 428.91 578.52 430.48 L 573.88 438.52 L 565.84 433.88 C 564.27 432.97 562.27 433.51 561.36 435.08 C 560.45 436.65 560.99 438.65 562.56 439.56 L 570.60 444.20 L 565.96 452.24 C 565.05 453.81 565.59 455.81 567.16 456.72 C 568.73 457.63 570.73 457.09 571.64 455.52 L 576.28 447.48 L 584.32 452.12 C 585.89 453.03 587.89 452.49 588.80 450.92 C 589.71 449.35 589.17 447.34 587.60 446.44 Z" fill="#ffffff" fill-rule="nonzero" group-id="1" node-id="364" stroke="none" target-height="29.26001" target-width="29.26001" target-x="560.45" target-y="428.37"></path><path d="M 237.02 460.60 L 228.98 455.96 L 233.62 447.92 C 234.53 446.35 233.99 444.35 232.42 443.44 C 230.85 442.53 228.85 443.07 227.94 444.64 L 223.30 452.68 L 215.26 448.04 C 213.69 447.13 211.69 447.67 210.78 449.24 C 209.87 450.81 210.41 452.81 211.98 453.72 L 220.02 458.36 L 215.38 466.40 C 214.47 467.97 215.01 469.97 216.58 470.88 C 218.15 471.79 220.15 471.25 221.06 469.68 L 225.70 461.64 L 233.74 466.28 C 235.31 467.19 237.31 466.65 238.22 465.08 C 239.12 463.51 238.59 461.50 237.02 460.60 Z" fill="#ffffff" fill-rule="nonzero" group-id="1" node-id="366" stroke="none" target-height="29.26001" target-width="29.25" target-x="209.87" target-y="442.53"></path></g><path d="M 203.72 302.61 C 203.72 302.61 169.68 280.59 127.22 288.75 C 84.76 296.91 70.30 336.60 72.50 350.03 C 74.70 363.46 82.57 365.95 107.46 361.01 C 132.35 356.07 175.73 343.56 181.77 340.33 C 187.81 337.10 203.72 302.61 203.72 302.61 Z" fill="#ffffff" fill-rule="nonzero" node-id="369" stroke="none" target-height="85.360016" target-width="133.42" target-x="70.3" target-y="280.59"></path><path d="M 153.39 304.30 C 142.96 305.63 127.22 310.37 120.26 323.83 C 113.31 337.29 102.14 361.75 85.30 359.86 C 79.99 359.10 72.86 357.11 72.49 343.71 C 72.20 346.17 72.21 348.32 72.49 350.04 C 74.69 363.47 82.56 365.96 107.45 361.02 C 132.34 356.08 175.72 343.57 181.76 340.34 C 185.87 338.15 194.56 321.46 199.69 311.04 C 193.19 308.32 174.25 301.54 153.39 304.30 Z" fill="url(#SVGID_16_)" fill-rule="nonzero" node-id="371" stroke="none" target-height="64.41998" target-width="127.490005" target-x="72.2" target-y="301.54"></path><path d="M 189.07 330.91 C 190.75 328.12 192.50 324.98 194.17 321.82 C 184.40 317.96 151.98 307.31 121.52 321.63 C 121.07 322.34 120.64 323.06 120.25 323.83 C 116.64 330.83 111.88 340.79 105.79 348.48 C 122.86 342.00 172.46 324.32 189.07 330.91 Z" fill="#ffdcee" fill-rule="nonzero" node-id="373" stroke="none" target-height="41.170013" target-width="88.38" target-x="105.79" target-y="307.31"></path><path d="M 255.15 276.81 C 255.15 276.81 249.48 238.70 224.77 215.75 C 213.42 205.89 185.60 195.65 166.02 209.68 C 146.44 223.71 142.96 244.19 155.77 258.60 C 161.08 263.91 164.74 265.62 169.31 264.48 C 173.89 263.34 173.85 255.76 173.85 255.76 C 173.85 255.76 206.46 264.86 218.18 289.32 C 242.34 280.79 255.15 276.81 255.15 276.81 Z" fill="#ffffff" fill-rule="nonzero" node-id="375" stroke="none" target-height="93.67001" target-width="112.18999" target-x="142.96" target-y="195.65"></path><path d="M 218.18 289.32 C 233.56 283.89 244.34 280.30 250.14 278.41 C 247.75 269.10 239.64 241.38 225.13 229.02 C 219.27 224.09 199.14 213.66 185.23 225.61 C 171.32 237.56 173.85 255.76 173.85 255.76 C 173.85 255.76 206.46 264.86 218.18 289.32 Z" fill="url(#SVGID_17_)" fill-rule="nonzero" node-id="377" stroke="none" target-height="75.66" target-width="78.81999" target-x="171.32" target-y="213.66"></path><path d="M 218.54 236.99 C 213.92 232.70 201.83 225.26 184.78 226.02 C 178.07 232.00 175.34 239.44 174.28 245.39 C 182.61 246.18 205.48 249.32 218.35 260.70 C 223.47 266.00 226.84 269.01 229.05 285.53 C 233.46 284.01 237.31 282.69 240.63 281.58 C 239.19 273.89 233.62 249.93 218.54 236.99 Z" fill="#ffdcee" fill-rule="nonzero" node-id="379" stroke="none" target-height="60.270004" target-width="66.350006" target-x="174.28" target-y="225.26"></path><path d="M 339.16 363.56 C 339.16 363.56 330.01 368.47 334.77 379.43 C 327.08 380.52 313.91 388.49 311.34 392.28 C 308.05 389.25 299.63 381.42 299.63 381.42 L 278.57 408.34 L 283.01 417.29 C 283.01 417.29 262.66 431.73 274.00 457.89 C 285.35 484.06 294.50 493.92 310.97 495.05 C 309.51 506.81 311.34 510.03 306.94 522.16 C 302.55 534.30 301.63 545.10 302.18 551.74 C 291.75 553.83 261.55 561.60 267.95 584.16 C 274.35 606.72 304.37 594.21 311.51 590.42 C 318.65 586.63 325.79 574.87 333.66 566.15 C 341.53 557.43 360.93 534.48 360.93 534.48 L 367.70 381.41 L 339.16 363.56 Z M 303.53 474.70 C 303.53 474.70 296.45 460.80 295.35 455.36 C 295.35 455.36 308.04 469.06 309.50 474.03 C 305.97 474.57 303.53 474.70 303.53 474.70 Z" fill="#ffffff" fill-rule="nonzero" node-id="381" stroke="none" target-height="243.15997" target-width="106.150024" target-x="261.55" target-y="363.56"></path><path d="M 372.59 443.85 C 372.59 443.85 357.95 408.96 332.32 414.52 C 327.68 415.78 312.07 425.14 319.14 443.85 C 321.82 450.17 331.83 461.29 336.71 465.34 C 341.59 469.39 349.40 478.23 349.15 482.03 C 363.44 477.76 372.59 443.85 372.59 443.85 Z" fill="#f6f5f0" fill-rule="nonzero" node-id="383" stroke="none" target-height="73.07001" target-width="60.51999" target-x="312.07" target-y="408.96"></path><path d="M 299.62 381.42 L 278.56 408.34 L 283.00 417.29 C 283.00 417.29 283.00 417.29 283.00 417.29 C 311.04 415.49 311.33 392.29 311.33 392.29 C 308.04 389.25 299.62 381.42 299.62 381.42 Z" fill="#f6f5f0" fill-rule="nonzero" node-id="385" stroke="none" target-height="35.869995" target-width="32.76999" target-x="278.56" target-y="381.42"></path><path d="M 334.76 379.43 C 334.76 379.43 350.01 386.10 367.70 381.42 L 339.15 363.57 C 339.16 363.56 330.00 368.48 334.76 379.43 Z" fill="#f6f5f0" fill-rule="nonzero" node-id="387" stroke="none" target-height="22.540009" target-width="37.700012" target-x="330" target-y="363.56"></path><path d="M 291.39 445.28 C 293.04 450.12 295.36 455.36 295.36 455.36 C 295.36 455.36 308.05 469.06 309.51 474.03 L 318.84 475.43 C 318.84 475.42 302.00 452.86 291.39 445.28 Z" fill="#f6f5f0" fill-rule="nonzero" node-id="389" stroke="none" target-height="30.149994" target-width="27.449982" target-x="291.39" target-y="445.28"></path><path d="M 334.15 493.79 C 334.15 493.79 326.34 493.54 314.38 492.78 C 299.01 491.07 291.23 486.10 287.44 482.30 C 294.03 490.65 301.22 494.39 310.96 495.06 L 334.75 498.60 L 334.15 493.79 Z" fill="#f6f5f0" fill-rule="nonzero" node-id="391" stroke="none" target-height="16.300018" target-width="47.309998" target-x="287.44" target-y="482.3"></path><path d="M 361.92 512.26 C 359.04 514.37 356.61 516.28 355.81 517.24 C 355.81 517.24 337.51 538.67 331.47 552.89 C 325.43 567.11 314.91 588.06 295.23 591.38 C 284.98 592.52 265.84 593.87 269.09 569.97 C 267.03 573.89 266.36 578.57 267.95 584.17 C 274.36 606.73 304.37 594.22 311.51 590.43 C 318.65 586.64 325.79 574.88 333.66 566.16 C 341.53 557.44 360.93 534.49 360.93 534.49 L 361.92 512.26 Z" fill="#f0ede1" fill-rule="nonzero" node-id="393" stroke="none" target-height="94.46997" target-width="96.08002" target-x="265.84" target-y="512.26"></path><path d="M 550.81 338.43 L 490.15 343.49 L 492.43 546.24 L 558.11 549.78 Z" fill="#fc7070" fill-rule="nonzero" group-id="2" node-id="397" stroke="none" target-height="211.35004" target-width="67.95999" target-x="490.15" target-y="338.43"></path><path d="M 356.29 325.92 L 490.15 343.49 L 538.29 339.47 L 538.29 300.89 L 354.24 322.19 Z" fill="url(#SVGID_18_)" fill-rule="nonzero" group-id="2" node-id="399" stroke="none" target-height="42.599976" target-width="184.04999" target-x="354.24" target-y="300.89"></path><path d="M 354.24 560.66 L 492.43 546.24 L 490.15 343.49 L 356.29 325.92 Z" fill="url(#SVGID_19_)" fill-rule="nonzero" group-id="2" node-id="401" stroke="none" target-height="234.73996" target-width="138.19" target-x="354.24" target-y="325.92"></path><path d="M 558.11 549.78 L 492.43 546.24 L 354.24 560.66 L 554.35 583.79 Z" fill="url(#SVGID_20_)" fill-rule="nonzero" group-id="2" node-id="403" stroke="none" target-height="37.549988" target-width="203.87" target-x="354.24" target-y="546.24"></path><path d="M 393.24 292.92 L 599.84 264.86 L 539.64 296.34 L 350.14 319.47 Z" fill="url(#SVGID_21_)" fill-rule="nonzero" group-id="2" node-id="405" stroke="none" target-height="54.610016" target-width="249.70001" target-x="350.14" target-y="264.86"></path><path d="M 599.84 271.69 L 599.84 264.86 L 539.64 296.34 L 539.64 304.05 Z" fill="#fc7070" fill-rule="nonzero" group-id="2" node-id="407" stroke="none" target-height="39.190002" target-width="60.200012" target-x="539.64" target-y="264.86"></path><path d="M 539.64 296.34 L 630.62 337.29 L 630.62 537.90 L 539.64 591.75 L 534.16 587.20 Z" fill="url(#SVGID_22_)" fill-rule="nonzero" group-id="2" node-id="409" stroke="none" target-height="295.41" target-width="96.46002" target-x="534.16" target-y="296.34"></path><path d="M 350.14 319.47 L 350.14 567.48 L 539.64 591.75 L 539.64 296.34 L 350.14 319.47 Z M 531.09 582.27 L 358.69 559.56 L 358.69 327.46 L 531.09 305.81 L 531.09 582.27 Z" fill="#fadad4" fill-rule="nonzero" group-id="2" node-id="411" stroke="none" target-height="295.41" target-width="189.5" target-x="350.14" target-y="296.34"></path><path d="M 378.61 361.00 C 378.61 370.96 367.45 379.04 353.68 379.04 C 339.91 379.04 328.75 370.96 328.75 361.00 C 328.75 351.04 339.91 342.96 353.68 342.96 C 367.45 342.96 378.61 351.04 378.61 361.00 Z" fill="#ffffff" fill-rule="nonzero" node-id="414" stroke="none" target-height="36.080017" target-width="49.859985" target-x="328.75" target-y="342.96"></path><path d="M 380.88 485.06 C 380.88 495.02 369.72 503.10 355.95 503.10 C 342.18 503.10 331.02 495.02 331.02 485.06 C 331.02 475.10 342.18 467.02 355.95 467.02 C 369.72 467.02 380.88 475.10 380.88 485.06 Z" fill="#ffffff" fill-rule="nonzero" node-id="416" stroke="none" target-height="36.080017" target-width="49.860016" target-x="331.02" target-y="467.02"></path><path d="M 311.77 295.64 C 283.92 266.78 236.95 258.51 198.87 297.97 C 163.05 335.08 168.77 386.08 196.62 414.94 C 224.47 443.80 267.94 435.41 299.73 402.47 C 331.52 369.53 339.62 324.50 311.77 295.64 Z" fill="#ffffff" fill-rule="nonzero" group-id="3" node-id="420" stroke="none" target-height="185.28998" target-width="176.56999" target-x="163.05" target-y="258.51"></path><path d="M 218.39 347.06 L 220.54 349.78 L 222.20 352.51 L 223.41 355.28 L 224.22 358.19 L 224.54 360.89 L 224.43 363.43 L 223.83 365.87 L 222.77 367.96 L 221.23 369.76 L 219.28 371.11 L 217.10 371.94 L 214.61 372.29 L 212.07 372.15 L 209.42 371.55 L 206.61 370.44 L 203.98 368.95 L 201.42 367.02 L 198.94 364.61 L 196.79 361.89 L 195.13 359.15 L 193.92 356.38 L 193.11 353.47 L 192.79 350.77 L 192.90 348.23 L 193.50 345.79 L 194.56 343.70 L 196.10 341.90 L 198.05 340.56 L 200.24 339.72 L 202.72 339.37 L 205.26 339.52 L 207.92 340.12 L 210.72 341.22 L 213.35 342.71 L 215.91 344.64 L 218.39 347.06 Z" fill="#4c2c00" fill-rule="nonzero" group-id="3,6" node-id="424" stroke="none" target-height="32.920013" target-width="31.75" target-x="192.79" target-y="339.37"></path><path d="M 211.77 355.86 C 211.77 359.09 209.25 361.70 206.14 361.70 C 203.03 361.70 200.51 359.09 200.51 355.86 C 200.51 352.63 203.03 350.02 206.14 350.02 C 209.25 350.02 211.77 352.63 211.77 355.86 Z" fill="#ffffff" fill-rule="nonzero" group-id="3" node-id="427" stroke="none" target-height="11.680023" target-width="11.26001" target-x="200.51" target-y="350.02"></path><path d="M 222.34 357.91 C 222.34 359.62 221.01 361.00 219.36 361.00 C 217.71 361.00 216.38 359.62 216.38 357.91 C 216.38 356.20 217.71 354.82 219.36 354.82 C 221.01 354.82 222.34 356.20 222.34 357.91 Z" fill="#ffffff" fill-rule="nonzero" group-id="3" node-id="429" stroke="none" target-height="6.1799927" target-width="5.9599915" target-x="216.38" target-y="354.82"></path><path d="M 261.61 302.27 L 263.76 305.00 L 265.42 307.73 L 266.62 310.50 L 267.44 313.41 L 267.76 316.11 L 267.64 318.65 L 267.05 321.09 L 265.99 323.18 L 264.45 324.98 L 262.50 326.32 L 260.31 327.16 L 257.82 327.51 L 255.29 327.36 L 252.63 326.76 L 249.83 325.66 L 247.19 324.17 L 244.64 322.24 L 242.16 319.83 L 240.01 317.10 L 238.35 314.37 L 237.14 311.60 L 236.33 308.69 L 236.00 305.99 L 236.12 303.45 L 236.72 301.01 L 237.78 298.92 L 239.32 297.12 L 241.27 295.78 L 243.45 294.94 L 245.94 294.59 L 248.48 294.74 L 251.13 295.34 L 253.94 296.44 L 256.57 297.93 L 259.12 299.86 L 261.61 302.27 Z" fill="#4c2c00" fill-rule="nonzero" group-id="3,7" node-id="433" stroke="none" target-height="32.920013" target-width="31.76001" target-x="236" target-y="294.59"></path><path d="M 257.53 308.45 C 257.53 311.68 255.01 314.29 251.90 314.29 C 248.79 314.29 246.27 311.68 246.27 308.45 C 246.27 305.22 248.79 302.61 251.90 302.61 C 255.01 302.61 257.53 305.22 257.53 308.45 Z" fill="#ffffff" fill-rule="nonzero" group-id="3" node-id="436" stroke="none" target-height="11.680023" target-width="11.2599945" target-x="246.27" target-y="302.61"></path><path d="M 256.86 322.15 C 256.86 323.86 255.53 325.24 253.88 325.24 C 252.23 325.24 250.90 323.86 250.90 322.15 C 250.90 320.44 252.23 319.06 253.88 319.06 C 255.53 319.06 256.86 320.44 256.86 322.15 Z" fill="#ffffff" fill-rule="nonzero" group-id="3" node-id="438" stroke="none" target-height="6.1799927" target-width="5.9599915" target-x="250.9" target-y="319.06"></path><path d="M 234.94 385.69 L 235.80 386.89 L 236.27 388.42 L 236.30 390.40 L 235.95 392.40 L 235.20 394.65 L 233.99 397.21 L 231.68 400.87 L 228.50 404.68 L 224.87 408.06 L 221.35 410.57 L 218.85 411.91 L 216.64 412.78 L 214.67 413.25 L 212.69 413.32 L 211.13 412.94 L 209.89 412.15 L 209.03 410.95 L 208.56 409.41 L 208.53 407.43 L 208.88 405.43 L 209.63 403.18 L 210.84 400.62 L 213.15 396.96 L 216.33 393.15 L 219.96 389.78 L 223.48 387.26 L 225.97 385.92 L 228.19 385.05 L 230.16 384.58 L 232.14 384.51 L 233.70 384.89 L 234.94 385.69 Z" fill="#ffdcee" fill-rule="nonzero" group-id="3,8" node-id="442" stroke="none" target-height="28.809998" target-width="27.770004" target-x="208.53" target-y="384.51"></path><path d="M 306.01 312.04 L 306.87 313.24 L 307.34 314.78 L 307.37 316.76 L 307.01 318.76 L 306.26 321.01 L 305.06 323.57 L 302.74 327.23 L 299.56 331.04 L 295.93 334.41 L 292.41 336.93 L 289.92 338.27 L 287.71 339.14 L 285.73 339.61 L 283.75 339.68 L 282.20 339.30 L 280.95 338.50 L 280.09 337.30 L 279.62 335.77 L 279.59 333.79 L 279.95 331.79 L 280.70 329.54 L 281.90 326.98 L 284.22 323.32 L 287.40 319.51 L 291.03 316.13 L 294.55 313.62 L 297.04 312.28 L 299.25 311.41 L 301.23 310.94 L 303.21 310.87 L 304.76 311.25 L 306.01 312.04 Z" fill="#ffdcee" fill-rule="nonzero" group-id="3,9" node-id="447" stroke="none" target-height="28.809998" target-width="27.779999" target-x="279.59" target-y="310.87"></path><path d="M 269.68 353.87 L 270.58 354.95 L 271.19 356.19 L 271.53 357.65 L 271.50 359.97 L 270.85 362.54 L 269.63 365.04 L 267.77 367.50 L 265.50 369.59 L 263.13 371.04 L 260.63 371.94 L 258.33 372.19 L 256.84 372.00 L 255.55 371.51 L 254.39 370.71 L 253.49 369.64 L 252.87 368.40 L 252.54 366.94 L 252.57 364.62 L 253.22 362.05 L 254.44 359.55 L 256.30 357.09 L 258.57 355.00 L 260.94 353.55 L 263.43 352.64 L 265.74 352.40 L 267.22 352.59 L 268.52 353.08 L 269.68 353.87 Z" fill="#4c2c00" fill-rule="nonzero" group-id="3,10" node-id="452" stroke="none" target-height="19.790009" target-width="18.990005" target-x="252.54" target-y="352.4"></path><path d="M 285.59 376.79 L 287.20 378.96 L 288.26 381.15 L 288.82 383.41 L 288.82 385.45 L 288.51 386.74 L 287.96 387.84 L 287.15 388.79 L 286.13 389.50 L 284.97 389.94 L 283.66 390.12 L 281.63 389.91 L 279.43 389.13 L 277.36 387.86 L 275.37 386.03 L 273.75 383.87 L 272.70 381.68 L 272.14 379.41 L 272.14 377.37 L 272.45 376.08 L 273.00 374.98 L 273.81 374.03 L 274.83 373.32 L 275.98 372.88 L 277.30 372.71 L 279.33 372.91 L 281.52 373.70 L 283.60 374.97 L 285.59 376.79 Z" fill="#f48484" fill-rule="nonzero" group-id="3,11" node-id="457" stroke="none" target-height="17.410004" target-width="16.679993" target-x="272.14" target-y="372.71"></path><path d="M 280.06 380.97 C 278.14 382.96 278.12 386.30 279.74 389.26 C 282.65 390.57 285.61 390.42 287.40 388.57 C 289.18 386.72 289.33 383.65 288.07 380.64 C 285.20 378.96 281.97 378.99 280.06 380.97 Z" fill="#f7b7b7" fill-rule="nonzero" group-id="3" node-id="460" stroke="none" target-height="11.610016" target-width="11.209991" target-x="278.12" target-y="378.96"></path><path d="M 261.13 361.38 L 261.60 362.09 L 261.69 363.02 L 261.43 363.99 L 260.80 364.97 L 259.90 365.71 L 258.97 366.08 L 258.04 366.10 L 257.28 365.72 L 256.82 365.01 L 256.72 364.08 L 256.98 363.12 L 257.61 362.14 L 258.51 361.39 L 259.44 361.02 L 260.37 361.01 L 261.13 361.38 Z" fill="#ffffff" fill-rule="nonzero" group-id="3,12" node-id="464" stroke="none" target-height="5.0899963" target-width="4.970001" target-x="256.72" target-y="361.01"></path></svg>